<mxfile host="app.diagrams.net" modified="2024-04-19T01:18:46.852Z" agent="Mozilla/5.0 (Windows NT 10.0; Win64; x64; rv:124.0) Gecko/20100101 Firefox/124.0" version="24.2.5" etag="LSJaedV2kJ-hdfin9jho" type="github">
  <diagram name="第 1 页" id="kAGm84-MOWxL7rQp7Sg5">
    <mxGraphModel>
      <root>
        <mxCell id="0" />
        <mxCell id="1" parent="0" />
      </root>
    </mxGraphModel>
  </diagram>
</mxfile>
